<?xml version="1.0" encoding="UTF-8" standalone="no"?>
<!DOCTYPE svg PUBLIC "-//W3C//DTD SVG 1.1//EN"
 "http://www.w3.org/Graphics/SVG/1.1/DTD/svg11.dtd">
<!-- Generated by graphviz version 2.38.0 (20140413.2041)
 -->
<!-- Title: G Pages: 1 -->
<svg width="158pt" height="184pt"
 viewBox="0.00 0.00 157.81 184.00" xmlns="http://www.w3.org/2000/svg" xmlns:xlink="http://www.w3.org/1999/xlink">
<g id="graph0" class="graph" transform="scale(1 1) rotate(0) translate(4 180)">
<title>G</title>
<polygon fill="white" stroke="none" points="-4,4 -4,-180 153.814,-180 153.814,4 -4,4"/>
<g id="clust1" class="cluster"><title>cluster_Global</title>
<path fill="none" stroke="gray" d="M20,-8C20,-8 129.814,-8 129.814,-8 135.814,-8 141.814,-14 141.814,-20 141.814,-20 141.814,-156 141.814,-156 141.814,-162 135.814,-168 129.814,-168 129.814,-168 20,-168 20,-168 14,-168 8,-162 8,-156 8,-156 8,-20 8,-20 8,-14 14,-8 20,-8"/>
<text text-anchor="middle" x="74.907" y="-155.2" font-family="Times,serif" font-size="11.00" fill="gray">Global</text>
</g>
<g id="clust2" class="cluster"><title>cluster_\smtech</title>
<path fill="none" stroke="gray" d="M28,-16C28,-16 121.814,-16 121.814,-16 127.814,-16 133.814,-22 133.814,-28 133.814,-28 133.814,-129 133.814,-129 133.814,-135 127.814,-141 121.814,-141 121.814,-141 28,-141 28,-141 22,-141 16,-135 16,-129 16,-129 16,-28 16,-28 16,-22 22,-16 28,-16"/>
<text text-anchor="middle" x="74.907" y="-128.2" font-family="Times,serif" font-size="11.00" fill="gray">smtech</text>
</g>
<!-- \\smtech\\StMarksColors -->
<g id="node1" class="node"><title>\\smtech\\StMarksColors</title>
<polygon fill="none" stroke="black" points="125.721,-114 24.0928,-114 24.0928,-78 125.721,-78 125.721,-114"/>
<text text-anchor="middle" x="74.907" y="-92.7" font-family="Courier,monospace" font-size="11.00">StMarksColors</text>
</g>
<!-- \\smtech\\Color -->
<g id="node2" class="node"><title>\\smtech\\Color</title>
<polygon fill="none" stroke="black" points="101.907,-60 47.907,-60 47.907,-24 101.907,-24 101.907,-60"/>
<text text-anchor="middle" x="74.907" y="-38.7" font-family="Courier,monospace" font-size="11.00">Color</text>
</g>
</g>
</svg>
